# xmcd
#
# Track frame offsets: 
#        150
#        13067
#        24635
#        36063
#        47533
#        58865
#        69949
#        80388
#        85763
#        97960
#        108275
#        120908
#        124792
#        130083
#
# Disc length: 1886 seconds
#
# Revision: 0
# Processed by: cddbd v1.5.2PL0 Copyright (c) Steve Scherf et al.
# Submitted via: ExactAudioCopy v0.99pb5
#
DISCID=a5075c0e
DTITLE=The Tremolo Beer Gut - Nous Sommes The Tremolo Beer Gut, Qui Le
DTITLE=Fuck Êtes-vous?
DYEAR=2008
DGENRE=Surf
TTITLE0=Delirium Tremolo
TTITLE1=9 Times the Pain
TTITLE2=Shoreditch Capone
TTITLE3=Junkie Tools
TTITLE4=Damn Right
TTITLE5=More the Man I Used to Be
TTITLE6=Zoo Bizarre
TTITLE7=Opium Svengali
TTITLE8=The Old Back Hand
TTITLE9=The Motherfucking G
TTITLE10=Nosy Parker
TTITLE11=(She's Got) Peter Lorre Eyes
TTITLE12=29 Palms Grind
TTITLE13=Moonlit Cunt
EXTD=
EXTT0=
EXTT1=
EXTT2=
EXTT3=
EXTT4=
EXTT5=
EXTT6=
EXTT7=
EXTT8=
EXTT9=
EXTT10=
EXTT11=
EXTT12=
EXTT13=
PLAYORDER=
